HIERARCHY
ROOT Hips
{
	OFFSET 0.000000 71.427986 0.000000
	CHANNELS 6 Xposition Yposition Zposition Xrotation Yrotation Zrotation
	JOINT Pelvis
	{
		OFFSET 0.000000 0.000000 0.000000
		CHANNELS 3 Xrotation Yrotation Zrotation
		JOINT LeftUpLeg
		{
			OFFSET 6.797100 -2.508499 -1.318700
			CHANNELS 3 Xrotation Yrotation Zrotation
			JOINT LeftLeg
			{
				OFFSET 0.069008 -29.241863 0.690200
				CHANNELS 3 Xrotation Yrotation Zrotation
				JOINT LeftFoot
				{
					OFFSET -0.069008 -29.568123 -0.266800
					CHANNELS 3 Xrotation Yrotation Zrotation
					JOINT LeftToeBase
					{
						OFFSET 3.145500 -8.631000 16.059900
						CHANNELS 3 Xrotation Yrotation Zrotation
						End Site
						{
							OFFSET 0.000000 18.501587 0.000000
						}
					}
				}
			}
			JOINT Left_ShortSleeve
			{
				OFFSET 0.265923 -10.480953 1.153800
				CHANNELS 3 Xrotation Yrotation Zrotation
				End Site
				{
					OFFSET 1.725763 19.823879 0.000000
				}
			}
		}
		JOINT RightUpLeg
		{
			OFFSET -6.797100 -2.508499 -1.318700
			CHANNELS 3 Xrotation Yrotation Zrotation
			JOINT RightLeg
			{
				OFFSET -0.082453 -29.241932 0.688000
				CHANNELS 3 Xrotation Yrotation Zrotation
				JOINT RightFoot
				{
					OFFSET 0.082453 -29.568058 -0.264600
					CHANNELS 3 Xrotation Yrotation Zrotation
					JOINT RightToeBase
					{
						OFFSET -3.115300 -8.682800 16.113400
						CHANNELS 3 Xrotation Yrotation Zrotation
						End Site
						{
							OFFSET 0.000000 18.567114 0.000000
						}
					}
				}
			}
			JOINT Right_ShortSleeve
			{
				OFFSET -0.265923 -10.480953 1.153800
				CHANNELS 3 Xrotation Yrotation Zrotation
				End Site
				{
					OFFSET -1.725766 19.823910 0.000000
				}
			}
		}
	}
	JOINT Spine
	{
		OFFSET 0.000000 13.368103 0.470500
		CHANNELS 3 Xrotation Yrotation Zrotation
		JOINT Spine1
		{
			OFFSET 0.147000 13.837402 0.538800
			CHANNELS 3 Xrotation Yrotation Zrotation
			JOINT Spine2
			{
				OFFSET 0.168000 16.242897 -1.435500
				CHANNELS 3 Xrotation Yrotation Zrotation
				JOINT Neck
				{
					OFFSET 0.217200 18.631500 -1.679100
					CHANNELS 3 Xrotation Yrotation Zrotation
					JOINT Head
					{
						OFFSET 0.000000 6.599396 1.385900
						CHANNELS 3 Xrotation Yrotation Zrotation
						JOINT Hat
						{
							OFFSET -0.532200 27.220596 -10.096100
							CHANNELS 3 Xrotation Yrotation Zrotation
							End Site
							{
								OFFSET 0.000000 22.029861 0.000000
							}
						}
						JOINT HairD
						{
							OFFSET -10.777400 17.437393 -1.325900
							CHANNELS 3 Xrotation Yrotation Zrotation
							JOINT HairD1
							{
								OFFSET -3.290299 -11.051193 1.062200
								CHANNELS 3 Xrotation Yrotation Zrotation
								End Site
								{
									OFFSET 0.000000 11.579437 0.000000
								}
							}
						}
						JOINT HairB
						{
							OFFSET -10.777400 17.437393 1.467900
							CHANNELS 3 Xrotation Yrotation Zrotation
							JOINT HairB1
							{
								OFFSET -1.561200 -12.956299 3.590200
								CHANNELS 3 Xrotation Yrotation Zrotation
								End Site
								{
									OFFSET 0.000000 13.534866 0.000000
								}
							}
						}
						JOINT HairA
						{
							OFFSET 9.713100 17.437393 1.467900
							CHANNELS 3 Xrotation Yrotation Zrotation
							JOINT HairA1
							{
								OFFSET 1.561200 -12.956299 3.590200
								CHANNELS 3 Xrotation Yrotation Zrotation
								End Site
								{
									OFFSET 0.000000 13.534866 0.000000
								}
							}
						}
						JOINT HairC
						{
							OFFSET 9.713100 17.437393 -1.325900
							CHANNELS 3 Xrotation Yrotation Zrotation
							JOINT HairC1
							{
								OFFSET 3.290300 -11.051193 1.062200
								CHANNELS 3 Xrotation Yrotation Zrotation
								End Site
								{
									OFFSET 0.000000 11.579437 0.000000
								}
							}
						}
					}
				}
				JOINT LeftShoulder
				{
					OFFSET 5.101800 15.108002 -2.763700
					CHANNELS 3 Xrotation Yrotation Zrotation
					JOINT LeftArm
					{
						OFFSET 9.825497 2.506317 -1.597400
						CHANNELS 3 Xrotation Yrotation Zrotation
						JOINT LeftForeArm
						{
							OFFSET 21.966244 0.000000 0.000000
							CHANNELS 3 Xrotation Yrotation Zrotation
							JOINT LeftHand
							{
								OFFSET 33.879036 0.000000 0.000000
								CHANNELS 3 Xrotation Yrotation Zrotation
								JOINT LeftHandThumb1
								{
									OFFSET 6.715286 -2.359680 3.363841
									CHANNELS 3 Xrotation Yrotation Zrotation
									JOINT LeftHandThumb2
									{
										OFFSET 2.507072 -1.447464 1.447461
										CHANNELS 3 Xrotation Yrotation Zrotation
										JOINT LeftHandThumb3
										{
											OFFSET 2.898338 -1.673355 1.673357
											CHANNELS 3 Xrotation Yrotation Zrotation
											End Site
											{
												OFFSET -0.295959 3.727692 -0.131651
											}
										}
									}
								}
								JOINT LeftHandIndex1
								{
									OFFSET 14.190811 -0.254547 3.840278
									CHANNELS 3 Xrotation Yrotation Zrotation
									JOINT LeftHandIndex2
									{
										OFFSET 3.551727 0.000000 -0.000000
										CHANNELS 3 Xrotation Yrotation Zrotation
										JOINT LeftHandIndex3
										{
											OFFSET 2.894196 0.000000 0.000000
											CHANNELS 3 Xrotation Yrotation Zrotation
											End Site
											{
												OFFSET -1.000603 2.690872 0.366626
											}
										}
									}
								}
								JOINT LeftHandMiddle1
								{
									OFFSET 13.776489 0.000000 0.000000
									CHANNELS 3 Xrotation Yrotation Zrotation
									JOINT LeftHandMiddle2
									{
										OFFSET 3.438232 0.000000 0.000000
										CHANNELS 3 Xrotation Yrotation Zrotation
										JOINT LeftHandMiddle3
										{
											OFFSET 3.691551 0.000000 0.000000
											CHANNELS 3 Xrotation Yrotation Zrotation
											End Site
											{
												OFFSET -1.082298 3.499527 0.457670
											}
										}
									}
								}
								JOINT LeftHandRing1
								{
									OFFSET 13.966164 -0.268127 -3.067488
									CHANNELS 3 Xrotation Yrotation Zrotation
									JOINT LeftHandRing2
									{
										OFFSET 3.162567 0.000000 0.000000
										CHANNELS 3 Xrotation Yrotation Zrotation
										JOINT LeftHandRing3
										{
											OFFSET 3.324348 0.000000 0.000000
											CHANNELS 3 Xrotation Yrotation Zrotation
											End Site
											{
												OFFSET -0.861900 3.184998 0.405154
											}
										}
									}
								}
								JOINT LeftHandPinky1
								{
									OFFSET 13.131393 -0.168503 -5.746925
									CHANNELS 3 Xrotation Yrotation Zrotation
									JOINT LeftHandPinky2
									{
										OFFSET 2.849182 0.000000 0.000000
										CHANNELS 3 Xrotation Yrotation Zrotation
										JOINT LeftHandPinky3
										{
											OFFSET 2.805038 0.000000 0.000000
											CHANNELS 3 Xrotation Yrotation Zrotation
											End Site
											{
												OFFSET -0.882500 2.642609 0.325652
											}
										}
									}
								}
							}
							JOINT Left_Sleeve
							{
								OFFSET 6.592125 -0.646545 0.805568
								CHANNELS 3 Xrotation Yrotation Zrotation
								End Site
								{
									OFFSET -0.000179 20.275787 -0.000000
								}
							}
						}
					}
				}
				JOINT RightShoulder
				{
					OFFSET -5.731700 15.108002 -2.763700
					CHANNELS 3 Xrotation Yrotation Zrotation
					JOINT RightArm
					{
						OFFSET -9.825497 2.506317 -1.597400
						CHANNELS 3 Xrotation Yrotation Zrotation
						JOINT RightForeArm
						{
							OFFSET -21.966242 0.000000 0.000000
							CHANNELS 3 Xrotation Yrotation Zrotation
							JOINT RightHand
							{
								OFFSET -33.879032 0.000000 0.000000
								CHANNELS 3 Xrotation Yrotation Zrotation
								JOINT RightHandThumb1
								{
									OFFSET -6.715286 -2.359680 3.363841
									CHANNELS 3 Xrotation Yrotation Zrotation
									JOINT RightHandThumb2
									{
										OFFSET -2.507072 -1.447464 1.447461
										CHANNELS 3 Xrotation Yrotation Zrotation
										JOINT RightHandThumb3
										{
											OFFSET -2.898338 -1.673355 1.673357
											CHANNELS 3 Xrotation Yrotation Zrotation
											End Site
											{
												OFFSET 0.295959 3.727692 -0.131651
											}
										}
									}
								}
								JOINT RightHandIndex1
								{
									OFFSET -14.190811 -0.254547 3.840278
									CHANNELS 3 Xrotation Yrotation Zrotation
									JOINT RightHandIndex2
									{
										OFFSET -3.551727 0.000000 -0.000000
										CHANNELS 3 Xrotation Yrotation Zrotation
										JOINT RightHandIndex3
										{
											OFFSET -2.894196 0.000000 0.000000
											CHANNELS 3 Xrotation Yrotation Zrotation
											End Site
											{
												OFFSET 1.000603 2.690872 0.366626
											}
										}
									}
								}
								JOINT RightHandMiddle1
								{
									OFFSET -13.776489 0.000000 0.000000
									CHANNELS 3 Xrotation Yrotation Zrotation
									JOINT RightHandMiddle2
									{
										OFFSET -3.438232 0.000000 0.000000
										CHANNELS 3 Xrotation Yrotation Zrotation
										JOINT RightHandMiddle3
										{
											OFFSET -3.691551 0.000000 0.000000
											CHANNELS 3 Xrotation Yrotation Zrotation
											End Site
											{
												OFFSET 1.082298 3.499527 0.457670
											}
										}
									}
								}
								JOINT RightHandRing1
								{
									OFFSET -13.966164 -0.268127 -3.067488
									CHANNELS 3 Xrotation Yrotation Zrotation
									JOINT RightHandRing2
									{
										OFFSET -3.162567 0.000000 0.000000
										CHANNELS 3 Xrotation Yrotation Zrotation
										JOINT RightHandRing3
										{
											OFFSET -3.324348 0.000000 0.000000
											CHANNELS 3 Xrotation Yrotation Zrotation
											End Site
											{
												OFFSET 0.861900 3.184998 0.405154
											}
										}
									}
								}
								JOINT RightHandPinky1
								{
									OFFSET -13.131393 -0.168503 -5.746925
									CHANNELS 3 Xrotation Yrotation Zrotation
									JOINT RightHandPinky2
									{
										OFFSET -2.849182 0.000000 0.000000
										CHANNELS 3 Xrotation Yrotation Zrotation
										JOINT RightHandPinky3
										{
											OFFSET -2.805038 0.000000 0.000000
											CHANNELS 3 Xrotation Yrotation Zrotation
											End Site
											{
												OFFSET 0.882500 2.642609 0.325652
											}
										}
									}
								}
							}
							JOINT Right_Sleeve
							{
								OFFSET -6.592125 -0.646545 0.805568
								CHANNELS 3 Xrotation Yrotation Zrotation
								End Site
								{
									OFFSET 0.000179 20.275787 -0.000000
								}
							}
						}
					}
				}
				JOINT Bind_Right_JacketString
				{
					OFFSET -3.534800 11.969597 7.200700
					CHANNELS 3 Xrotation Yrotation Zrotation
					JOINT Bind_Right_JacketString1
					{
						OFFSET -0.319900 -6.102600 2.794100
						CHANNELS 3 Xrotation Yrotation Zrotation
						End Site
						{
							OFFSET 0.000000 6.719452 0.000000
						}
					}
				}
				JOINT Bind_Left_JacketString
				{
					OFFSET 2.904800 11.969597 7.200700
					CHANNELS 3 Xrotation Yrotation Zrotation
					JOINT Bind_Left_JacketString1
					{
						OFFSET 0.364800 -5.904503 3.186800
						CHANNELS 3 Xrotation Yrotation Zrotation
						End Site
						{
							OFFSET 0.000000 6.719513 0.000000
						}
					}
				}
				JOINT HairE
				{
					OFFSET 5.915200 17.612701 -11.592200
					CHANNELS 3 Xrotation Yrotation Zrotation
					JOINT HairE1
					{
						OFFSET 0.289200 -7.171898 -1.284500
						CHANNELS 3 Xrotation Yrotation Zrotation
						End Site
						{
							OFFSET 0.000000 7.291756 0.000000
						}
					}
				}
				JOINT HairF
				{
					OFFSET -0.864800 17.612701 -11.592200
					CHANNELS 3 Xrotation Yrotation Zrotation
					JOINT HairF1
					{
						OFFSET 0.000000 -14.087097 -2.127501
						CHANNELS 3 Xrotation Yrotation Zrotation
						End Site
						{
							OFFSET 0.000000 14.246841 0.000000
						}
					}
				}
				JOINT HairG
				{
					OFFSET -8.087700 17.612701 -11.592200
					CHANNELS 3 Xrotation Yrotation Zrotation
					JOINT HairG1
					{
						OFFSET -0.293600 -6.081398 -0.910100
						CHANNELS 3 Xrotation Yrotation Zrotation
						End Site
						{
							OFFSET 0.000000 6.156120 0.000000
						}
					}
				}
			}
		}
	}
	JOINT Pouch
	{
		OFFSET 0.000000 4.394501 10.847300
		CHANNELS 3 Xrotation Yrotation Zrotation
		End Site
		{
			OFFSET 0.000000 21.880577 0.000000
		}
	}
	JOINT Bag
	{
		OFFSET -13.229000 4.813004 -0.593300
		CHANNELS 3 Xrotation Yrotation Zrotation
		End Site
		{
			OFFSET 0.000000 21.880577 0.000000
		}
	}
	JOINT OccupyGuyFacialAnim_Joint
	{
		OFFSET 1.000000 -70.206398 -1.655000
		CHANNELS 3 Xrotation Yrotation Zrotation
		End Site
		{
			OFFSET 0.000000 21.880577 0.000000
		}
	}
}
MOTION
Frames: 5
Frame Time: 0.033333
-0.676998 68.554893 1.523594 5.019214 -13.968050 10.110618 -0.000000 0.000002 -0.000001 -24.155797 -9.982807 -12.327850 15.405592 -5.344012 -6.534684 4.919464 -27.894503 6.948876 0.000000 0.000000 -0.000000 -0.000001 -0.000003 -0.000000 -0.064998 -13.523478 -18.384904 40.271437 -10.784142 4.003655 -18.907939 10.841776 12.451162 -0.000000 -0.000003 0.000001 0.000000 0.000000 -0.000000 1.774847 4.587847 0.618941 5.177712 9.319278 2.134091 5.034814 9.321830 2.401388 -1.845106 -1.005188 -1.922329 -8.331943 -2.917951 -12.037764 0.000000 -0.000000 -0.000000 0.000000 -0.000000 -0.000000 0.000000 -0.000000 -0.000000 0.000000 -0.000000 -0.000000 0.000000 0.000000 0.000000 0.000000 -0.000000 -0.000000 0.000000 0.000000 0.000000 0.000000 -0.000000 -0.000000 0.000000 -0.000000 -0.000000 0.691017 -0.874998 -14.226179 -18.917508 -24.671905 -72.816462 0.000000 -68.916848 0.000001 -35.413947 9.401789 41.580320 -10.694356 -5.451186 10.782066 -18.089351 8.879835 2.392694 0.000002 0.000001 -0.000002 5.890380 8.200089 -88.621827 6.193143 5.841068 -93.357648 -0.000003 0.000001 -0.000002 7.765557 7.904043 -107.399493 4.299867 5.642372 -74.600795 0.000005 0.000003 0.000005 7.314716 8.035587 -105.794999 3.608019 5.405428 -67.422887 -0.000001 -0.000001 0.000004 10.390453 6.780235 -113.877135 1.747947 4.174835 -45.422165 -0.000003 0.000000 0.000001 0.000002 0.000000 -0.000001 -0.133332 13.109095 18.148170 -38.962913 64.531730 70.206688 0.000000 37.973878 0.000017 -23.994936 -7.675199 -15.866318 17.912426 17.120556 -32.483540 12.694421 -52.014244 20.210841 0.000002 -0.000001 -0.000001 0.276346 -8.899018 1.740159 5.888249 -4.491831 105.344221 0.000001 -0.000001 0.000002 4.166159 -8.600811 42.153226 7.050163 -3.996499 120.947118 -0.000001 0.000000 -0.000003 -0.361115 -4.549255 57.044241 4.703217 -4.656955 90.567099 -0.000000 0.000000 0.000000 -5.324603 -0.292084 51.887308 3.526277 -4.518083 75.931602 -0.000000 0.000001 -0.000003 -0.000001 -0.000002 -0.000002 0.000000 0.000001 -0.000001 0.000000 -0.000000 0.000001 0.000000 0.000001 -0.000001 0.000000 0.000001 -0.000001 0.000000 0.000001 -0.000001 0.000000 -0.000000 0.000001 0.000000 0.000001 -0.000001 0.000000 0.000001 -0.000001 0.000000 0.000001 -0.000001 0.000000 -0.000000 0.000001 -0.000000 0.000002 -0.000001 -0.000000 0.000002 -0.000001 -0.000000 0.000002 -0.000001 
-0.641230 68.464577 1.538579 4.889779 -14.057592 10.073236 -0.000000 -0.000000 0.000000 -24.511983 -9.609615 -12.356540 16.472256 -5.685956 -6.615004 4.477526 -27.798067 7.124960 -0.000000 0.000000 -0.000000 0.000002 -0.000002 0.000000 -0.228544 -13.489140 -18.529584 40.824423 -10.381871 3.923421 -19.005988 10.375677 12.553083 -0.000001 0.000000 -0.000000 -0.000000 0.000002 -0.000000 1.731316 4.565783 0.616004 5.046531 9.277902 2.114889 4.908062 9.279957 2.375850 -1.783230 -1.037074 -1.838875 -8.024802 -3.084916 -11.744760 -0.000000 -0.000000 -0.000000 -0.000000 -0.000000 -0.000000 -0.000000 -0.000000 -0.000001 -0.000000 -0.000000 -0.000000 -0.000000 -0.000000 -0.000000 -0.000000 -0.000000 -0.000000 -0.000000 -0.000000 -0.000000 -0.000000 -0.000000 -0.000000 -0.000000 -0.000000 -0.000000 0.697904 -0.908012 -14.111035 -18.438406 -24.042498 -72.709051 0.000009 -69.891017 0.000009 -35.272620 9.342640 41.119566 -10.026600 -5.183338 11.296802 -17.397083 8.325658 2.729952 0.000000 0.000001 -0.000002 5.505780 8.184721 -86.338420 6.184480 5.841562 -93.272531 0.000000 -0.000001 0.000001 7.558577 7.967123 -106.398023 4.238470 5.625179 -73.975368 -0.000001 0.000003 0.000001 7.212591 8.058758 -104.570066 3.681025 5.435077 -68.195880 0.000001 0.000001 -0.000003 10.470619 6.792676 -112.842170 1.774743 4.200982 -45.788772 -0.000001 0.000001 0.000003 -0.000002 -0.000001 0.000001 -0.349897 13.482311 18.149600 -38.713229 63.472545 70.415624 -0.000035 39.033800 0.000027 -23.419243 -8.318979 -16.076664 16.938634 16.421405 -31.593706 11.772967 -51.025598 19.422287 -0.000002 0.000003 -0.000003 0.300450 -8.822091 1.984813 5.854698 -4.500869 104.916405 0.000000 -0.000001 0.000000 4.218263 -8.616902 42.518433 7.023919 -4.012104 120.571089 -0.000001 0.000001 -0.000002 -0.278307 -4.631745 57.519086 4.716901 -4.656799 90.735593 -0.000000 -0.000001 0.000001 -5.021837 -0.747938 52.980500 3.504297 -4.512524 75.652241 -0.000002 0.000001 -0.000001 0.000001 0.000001 0.000002 -0.000000 0.000000 0.000003 -0.000000 -0.000001 -0.000000 -0.000000 0.000000 0.000003 -0.000000 0.000000 0.000003 -0.000000 0.000000 0.000003 -0.000000 -0.000001 -0.000000 -0.000000 0.000000 0.000003 -0.000000 0.000000 0.000003 -0.000000 0.000000 0.000003 -0.000000 -0.000001 -0.000000 -0.000000 -0.000000 0.000000 -0.000000 -0.000000 0.000000 -0.000000 -0.000000 0.000000 
-0.604259 68.373894 1.550444 4.750391 -14.166957 10.035736 -0.000000 0.000000 0.000000 -24.816393 -9.219512 -12.346638 17.461609 -6.008740 -6.736740 4.091387 -27.731108 7.330390 0.000000 0.000000 -0.000000 0.000001 0.000001 0.000000 -0.355311 -13.425422 -18.638097 41.315616 -9.845441 3.813693 -19.164669 9.869792 12.555850 -0.000001 -0.000000 -0.000001 -0.000000 0.000001 0.000000 1.693384 4.550099 0.610716 4.925542 9.238479 2.095884 4.795067 9.238760 2.348509 -1.735286 -1.047996 -1.799330 -7.670193 -3.227961 -11.436657 -0.000000 0.000000 -0.000000 -0.000000 0.000000 -0.000000 -0.000000 0.000000 -0.000000 -0.000000 0.000000 -0.000000 0.000000 0.000000 -0.000000 -0.000000 0.000000 -0.000000 0.000000 0.000000 -0.000000 -0.000000 0.000000 -0.000000 -0.000000 0.000000 -0.000000 0.702877 -0.913892 -14.106052 -17.941671 -23.462069 -72.590820 0.000051 -70.792431 0.000058 -35.210721 9.373982 41.159417 -9.501854 -4.786638 11.698694 -16.606751 7.713197 3.081772 -0.000003 0.000002 -0.000001 5.094410 8.144804 -83.918245 6.186696 5.841438 -93.294401 -0.000001 0.000000 -0.000004 7.350103 8.024683 -105.396007 4.186480 5.610062 -73.444177 0.000000 0.000004 0.000003 7.161150 8.068490 -103.491860 3.756442 5.464529 -68.990054 -0.000003 -0.000000 0.000001 10.592146 6.788584 -111.903231 1.801408 4.226697 -46.151622 -0.000001 -0.000001 -0.000001 -0.000002 -0.000001 -0.000000 -0.559874 13.908260 18.046045 -38.473018 62.398928 70.604526 -0.000022 40.024181 0.000023 -23.032279 -8.913526 -16.140009 15.973697 15.705653 -30.730479 10.878630 -50.033598 18.665162 0.000000 0.000000 -0.000002 0.323803 -8.747496 2.228221 5.821047 -4.509676 104.487988 -0.000000 0.000000 -0.000001 4.271392 -8.633112 42.886604 6.997629 -4.027444 120.196604 -0.000001 -0.000001 -0.000001 -0.196398 -4.711812 57.994187 4.730820 -4.656601 90.907277 0.000001 0.000001 -0.000001 -4.707561 -1.189561 54.077893 3.482319 -4.506857 75.372859 -0.000001 0.000000 0.000000 -0.000001 0.000001 0.000005 0.000001 0.000000 -0.000001 0.000000 -0.000000 -0.000001 0.000001 0.000000 -0.000001 0.000001 0.000000 -0.000001 0.000001 0.000000 -0.000001 0.000000 -0.000000 -0.000001 0.000001 0.000000 -0.000001 0.000001 0.000000 -0.000001 0.000001 0.000000 -0.000001 0.000000 -0.000000 -0.000001 -0.000000 0.000000 0.000000 -0.000000 0.000000 0.000000 -0.000000 0.000000 0.000000 
-0.567000 68.282806 1.559195 4.600981 -14.284835 10.007096 -0.000000 0.000001 -0.000001 -25.091876 -8.851598 -12.320858 18.397646 -6.293676 -6.894337 3.727329 -27.680723 7.546981 -0.000000 -0.000000 0.000000 -0.000000 0.000001 0.000001 -0.465071 -13.359433 -18.738807 41.774007 -9.230800 3.682155 -19.366301 9.345157 12.503972 -0.000001 0.000001 -0.000001 -0.000001 0.000001 -0.000000 1.659846 4.532819 0.599003 4.820389 9.199399 2.064020 4.688389 9.202286 2.311553 -1.689911 -1.087160 -1.689938 -7.329596 -3.391770 -11.135876 0.000000 -0.000000 0.000000 0.000000 -0.000000 0.000000 0.000000 -0.000000 0.000000 0.000000 -0.000000 -0.000000 0.000000 -0.000000 0.000000 0.000000 -0.000000 -0.000000 0.000000 -0.000000 0.000000 0.000000 -0.000000 0.000000 0.000000 -0.000000 0.000000 0.706154 -0.917579 -13.978280 -17.519835 -22.900144 -72.520298 -0.000034 -71.461974 -0.000030 -35.178169 9.124365 40.732028 -8.917748 -4.417112 12.144902 -15.836132 7.113790 3.454660 0.000001 -0.000001 0.000000 4.701778 8.083647 -81.572362 6.183248 5.841598 -93.260441 -0.000002 -0.000001 0.000003 7.140809 8.076505 -104.393451 4.129829 5.593003 -72.863987 -0.000001 0.000002 -0.000003 7.087907 8.083017 -102.351778 3.831008 5.492447 -69.770874 -0.000001 0.000003 -0.000000 10.700187 6.796898 -110.934088 1.829363 4.253322 -46.530121 -0.000000 -0.000002 0.000003 0.000002 -0.000002 0.000000 -0.796241 14.359511 18.143294 -38.167005 61.518974 70.638820 -0.000037 40.733226 0.000019 -22.614311 -9.450811 -16.069348 15.048626 15.087400 -29.810344 9.931437 -49.023898 17.848939 -0.000002 -0.000002 0.000002 0.346512 -8.700731 2.458708 5.786755 -4.518368 104.051997 0.000003 -0.000001 0.000002 4.335202 -8.656350 43.287786 6.972582 -4.041914 119.840027 -0.000000 -0.000001 -0.000003 -0.132868 -4.782754 58.537631 4.747776 -4.656320 91.116069 0.000000 0.000001 0.000000 -4.408364 -1.617980 55.296624 3.460379 -4.501112 75.093463 -0.000000 0.000001 -0.000001 -0.000001 -0.000002 -0.000003 -0.000001 0.000000 -0.000001 -0.000000 -0.000001 0.000000 -0.000001 0.000000 0.000001 -0.000001 0.000000 0.000001 -0.000001 0.000000 -0.000001 -0.000000 -0.000001 0.000001 -0.000001 0.000000 0.000001 -0.000001 0.000000 0.000001 -0.000001 0.000000 -0.000001 -0.000000 -0.000001 0.000001 -0.000000 0.000001 -0.000001 -0.000000 0.000001 -0.000001 -0.000000 0.000001 -0.000001 
-0.530972 68.191635 1.564577 4.438875 -14.399202 9.976699 0.000000 0.000000 0.000002 -25.336162 -8.514424 -12.284719 19.277524 -6.548057 -7.066412 3.398714 -27.641987 7.768007 -0.000000 -0.000003 -0.000000 -0.000001 -0.000002 -0.000000 -0.551139 -13.279900 -18.820959 42.218533 -8.595670 3.545449 -19.586143 8.795388 12.429349 -0.000001 -0.000001 0.000000 -0.000000 -0.000001 -0.000000 1.631812 4.517519 0.582069 4.723408 9.163255 2.030241 4.596024 9.165709 2.271398 -1.652796 -1.097924 -1.652761 -6.967499 -3.559033 -10.837237 0.000000 0.000000 0.000000 0.000000 0.000000 0.000000 0.000000 0.000000 0.000000 0.000000 0.000000 -0.000000 0.000000 0.000000 -0.000000 0.000000 0.000000 -0.000000 0.000000 0.000000 -0.000000 0.000000 0.000000 0.000000 0.000000 0.000000 0.000000 0.699562 -0.944861 -14.017675 -17.029082 -22.402947 -72.340132 0.000025 -72.264105 0.000052 -35.098553 9.057310 40.553521 -8.292741 -4.065055 12.617478 -15.081216 6.524254 3.849353 -0.000000 0.000001 -0.000003 4.325371 8.003077 -79.273573 6.176182 5.842028 -93.191053 0.000004 0.000003 -0.000003 6.931396 8.122534 -103.390438 4.070062 5.574296 -72.249632 -0.000002 0.000003 -0.000004 7.000285 8.099646 -101.172300 3.904975 5.519000 -70.541661 0.000000 -0.000001 -0.000003 10.799745 6.814673 -109.946211 1.858503 4.280684 -46.921627 -0.000001 -0.000001 -0.000001 -0.000001 -0.000000 -0.000001 -1.003891 14.867495 17.997767 -37.862696 60.484317 70.702532 0.000021 41.565727 -0.000025 -22.397587 -9.968635 -15.971305 14.101245 14.471354 -28.992790 8.974266 -47.963774 17.035776 -0.000000 0.000002 -0.000003 0.361122 -8.691652 2.598747 5.767558 -4.523119 103.808644 -0.000001 0.000000 0.000004 4.341616 -8.608793 43.784176 6.946496 -4.056715 119.471060 -0.000001 -0.000001 -0.000003 -0.111626 -4.830831 59.149445 4.762574 -4.655988 91.298230 0.000001 -0.000001 0.000001 -4.132778 -2.010017 56.533578 3.438450 -4.495217 74.814040 -0.000001 0.000000 -0.000001 0.000001 0.000001 -0.000001 0.000001 0.000000 -0.000001 0.000001 0.000001 -0.000001 0.000001 0.000000 0.000001 0.000001 0.000000 0.000001 0.000001 0.000000 -0.000001 0.000001 0.000001 -0.000001 0.000001 0.000000 0.000001 0.000001 0.000000 0.000001 0.000001 0.000000 -0.000001 0.000001 0.000001 -0.000001 0.000000 0.000000 0.000002 0.000000 0.000000 0.000002 0.000000 0.000000 0.000002 
